<svg xmlns="http://www.w3.org/2000/svg" viewBox="0 0 1280 720">
  <defs>
    <radialGradient id="dTorch" cx="50%" cy="50%" r="50%">
      <stop offset="0%" stop-color="#ff6600" stop-opacity="0.55"/>
      <stop offset="100%" stop-color="#ff6600" stop-opacity="0"/>
    </radialGradient>
    <linearGradient id="dFloor" x1="0%" y1="0%" x2="0%" y2="100%">
      <stop offset="0%" stop-color="#141420"/><stop offset="100%" stop-color="#0a0a14"/>
    </linearGradient>
  </defs>
  <!-- Base -->
  <rect width="1280" height="720" fill="#111118"/>
  <!-- Stone block rows (wall) -->
  <rect x="0" y="0" width="195" height="78" rx="2" fill="#222230" stroke="#0e0e1c" stroke-width="3"/>
  <rect x="198" y="0" width="212" height="78" rx="2" fill="#1c1c28" stroke="#0e0e1c" stroke-width="3"/>
  <rect x="413" y="0" width="195" height="78" rx="2" fill="#242432" stroke="#0e0e1c" stroke-width="3"/>
  <rect x="611" y="0" width="218" height="78" rx="2" fill="#1c1c28" stroke="#0e0e1c" stroke-width="3"/>
  <rect x="832" y="0" width="198" height="78" rx="2" fill="#222230" stroke="#0e0e1c" stroke-width="3"/>
  <rect x="1033" y="0" width="247" height="78" rx="2" fill="#1c1c28" stroke="#0e0e1c" stroke-width="3"/>
  <rect x="0" y="81" width="108" height="74" rx="2" fill="#1c1c28" stroke="#0e0e1c" stroke-width="3"/>
  <rect x="111" y="81" width="208" height="74" rx="2" fill="#222230" stroke="#0e0e1c" stroke-width="3"/>
  <rect x="322" y="81" width="188" height="74" rx="2" fill="#1c1c28" stroke="#0e0e1c" stroke-width="3"/>
  <rect x="513" y="81" width="216" height="74" rx="2" fill="#242432" stroke="#0e0e1c" stroke-width="3"/>
  <rect x="732" y="81" width="192" height="74" rx="2" fill="#1c1c28" stroke="#0e0e1c" stroke-width="3"/>
  <rect x="927" y="81" width="218" height="74" rx="2" fill="#222230" stroke="#0e0e1c" stroke-width="3"/>
  <rect x="1148" y="81" width="132" height="74" rx="2" fill="#1c1c28" stroke="#0e0e1c" stroke-width="3"/>
  <rect x="0" y="158" width="190" height="74" rx="2" fill="#222230" stroke="#0e0e1c" stroke-width="3"/>
  <rect x="193" y="158" width="210" height="74" rx="2" fill="#1c1c28" stroke="#0e0e1c" stroke-width="3"/>
  <rect x="406" y="158" width="193" height="74" rx="2" fill="#242432" stroke="#0e0e1c" stroke-width="3"/>
  <rect x="602" y="158" width="212" height="74" rx="2" fill="#1c1c28" stroke="#0e0e1c" stroke-width="3"/>
  <rect x="817" y="158" width="198" height="74" rx="2" fill="#222230" stroke="#0e0e1c" stroke-width="3"/>
  <rect x="1018" y="158" width="262" height="74" rx="2" fill="#1c1c28" stroke="#0e0e1c" stroke-width="3"/>
  <rect x="0" y="235" width="108" height="74" rx="2" fill="#1c1c28" stroke="#0e0e1c" stroke-width="3"/>
  <rect x="111" y="235" width="208" height="74" rx="2" fill="#222230" stroke="#0e0e1c" stroke-width="3"/>
  <rect x="322" y="235" width="188" height="74" rx="2" fill="#1c1c28" stroke="#0e0e1c" stroke-width="3"/>
  <rect x="513" y="235" width="216" height="74" rx="2" fill="#242432" stroke="#0e0e1c" stroke-width="3"/>
  <rect x="732" y="235" width="192" height="74" rx="2" fill="#1c1c28" stroke="#0e0e1c" stroke-width="3"/>
  <rect x="927" y="235" width="218" height="74" rx="2" fill="#222230" stroke="#0e0e1c" stroke-width="3"/>
  <rect x="1148" y="235" width="132" height="74" rx="2" fill="#1c1c28" stroke="#0e0e1c" stroke-width="3"/>
  <rect x="0" y="312" width="190" height="74" rx="2" fill="#222230" stroke="#0e0e1c" stroke-width="3"/>
  <rect x="193" y="312" width="210" height="74" rx="2" fill="#1c1c28" stroke="#0e0e1c" stroke-width="3"/>
  <rect x="406" y="312" width="193" height="74" rx="2" fill="#1c1c28" stroke="#0e0e1c" stroke-width="3"/>
  <rect x="602" y="312" width="212" height="74" rx="2" fill="#242432" stroke="#0e0e1c" stroke-width="3"/>
  <rect x="817" y="312" width="198" height="74" rx="2" fill="#222230" stroke="#0e0e1c" stroke-width="3"/>
  <rect x="1018" y="312" width="262" height="74" rx="2" fill="#1c1c28" stroke="#0e0e1c" stroke-width="3"/>
  <!-- Archway (dark passage) -->
  <rect x="492" y="0" width="296" height="390" fill="#080810"/>
  <path d="M492 0 L492 280 Q492 390 640 390 Q788 390 788 280 L788 0" fill="#080810"/>
  <path d="M492 0 L492 280 Q492 390 640 390 Q788 390 788 280 L788 0" fill="none" stroke="#1a1a28" stroke-width="6"/>
  <path d="M506 0 L506 278 Q506 376 640 376 Q774 376 774 278 L774 0" fill="#040408"/>
  <!-- Floor -->
  <rect x="0" y="450" width="1280" height="270" fill="url(#dFloor)"/>
  <rect x="0" y="453" width="284" height="60" fill="#161622" stroke="#0a0a16" stroke-width="3"/>
  <rect x="287" y="453" width="262" height="60" fill="#121220" stroke="#0a0a16" stroke-width="3"/>
  <rect x="552" y="453" width="274" height="60" fill="#161622" stroke="#0a0a16" stroke-width="3"/>
  <rect x="829" y="453" width="252" height="60" fill="#121220" stroke="#0a0a16" stroke-width="3"/>
  <rect x="1084" y="453" width="196" height="60" fill="#161622" stroke="#0a0a16" stroke-width="3"/>
  <rect x="0" y="516" width="196" height="55" fill="#121220" stroke="#0a0a16" stroke-width="3"/>
  <rect x="199" y="516" width="282" height="55" fill="#161622" stroke="#0a0a16" stroke-width="3"/>
  <rect x="484" y="516" width="264" height="55" fill="#121220" stroke="#0a0a16" stroke-width="3"/>
  <rect x="751" y="516" width="272" height="55" fill="#161622" stroke="#0a0a16" stroke-width="3"/>
  <rect x="1026" y="516" width="254" height="55" fill="#121220" stroke="#0a0a16" stroke-width="3"/>
  <!-- Left torch -->
  <rect x="82" y="176" width="10" height="30" rx="3" fill="#5a3006"/>
  <path d="M79 174 Q87 152 95 174 Q87 182 79 174" fill="#ff5500"/>
  <path d="M81 174 Q87 156 93 174 Q87 181 81 174" fill="#ffaa00"/>
  <path d="M84 174 Q87 160 90 174 Q87 180 84 174" fill="#ffee44"/>
  <ellipse cx="87" cy="162" rx="130" ry="190" fill="url(#dTorch)"/>
  <!-- Right torch -->
  <rect x="1188" y="176" width="10" height="30" rx="3" fill="#5a3006"/>
  <path d="M1185 174 Q1193 152 1201 174 Q1193 182 1185 174" fill="#ff5500"/>
  <path d="M1187 174 Q1193 156 1199 174 Q1193 181 1187 174" fill="#ffaa00"/>
  <path d="M1190 174 Q1193 160 1196 174 Q1193 180 1190 174" fill="#ffee44"/>
  <ellipse cx="1193" cy="162" rx="130" ry="190" fill="url(#dTorch)"/>
  <!-- Dark vignette -->
  <rect width="1280" height="720" fill="#000010" opacity="0.38"/>
  <rect x="0" y="0" width="320" height="720" fill="rgba(0,0,0,0.42)"/>
  <rect x="960" y="0" width="320" height="720" fill="rgba(0,0,0,0.42)"/>
  <rect x="0" y="590" width="1280" height="130" fill="rgba(0,0,0,0.5)"/>
</svg>
